<?xml version="1.0" encoding="UTF-8"?>
<svg width="18px" height="13px" viewBox="0 0 18 13" version="1.1" xmlns="http://www.w3.org/2000/svg" xmlns:xlink="http://www.w3.org/1999/xlink">
    <title>7B9BAEA9-624E-43F2-BBA7-7BD2F30706D7</title>
    <g id="child-site-templates" stroke="none" stroke-width="1" fill="none" fill-rule="evenodd">
        <g id="agh-child-locations-list-00" transform="translate(-425.000000, -933.000000)" fill="#263746" fill-rule="nonzero">
            <g id="map-list" transform="translate(273.000000, 542.000000)">
                <g id="list" transform="translate(0.000000, 102.000000)">
                    <g id="location-01" transform="translate(26.000000, 52.500000)">
                        <g id="services" transform="translate(1.000000, 225.500000)">
                            <g id="Group-4" transform="translate(114.000000, 0.000000)">
                                <path d="M16.2158967,17.7841033 C16.7592192,17.7841033 17.2663204,17.6482727 17.7371998,17.3766114 C18.2080793,17.1049501 18.5793498,16.7336796 18.8510111,16.2628002 C19.1226724,15.7919207 19.258503,15.2848195 19.258503,14.741497 C19.258503,14.1981744 19.1226724,13.6910732 18.8510111,13.2201938 C18.5793498,12.7493144 18.2080793,12.3780438 17.7371998,12.1063825 C17.2663204,11.8347212 16.7592192,11.6988906 16.2158967,11.6988906 C15.6725741,11.6988906 15.1654729,11.8347212 14.6945935,12.1063825 C14.223714,12.3780438 13.8524435,12.7493144 13.5807822,13.2201938 C13.3091209,13.6910732 13.1732903,14.1981744 13.1732903,14.741497 C13.1732903,15.2848195 13.3091209,15.7919207 13.5807822,16.2628002 C13.8524435,16.7336796 14.223714,17.1049501 14.6945935,17.3766114 C15.1654729,17.6482727 15.6725741,17.7841033 16.2158967,17.7841033 Z M24.0397416,17.7841033 C24.7641719,17.7841033 25.3799372,17.530553 25.8870384,17.0234517 C26.3941396,16.5163505 26.64769,15.9005852 26.64769,15.176155 C26.64769,14.4517248 26.3941396,13.8359595 25.8870384,13.3288583 C25.3799372,12.8217571 24.7641719,12.5682067 24.0397416,12.5682067 C23.3153114,12.5682067 22.6995461,12.8217571 22.1924449,13.3288583 C21.6853437,13.8359595 21.4317933,14.4517248 21.4317933,15.176155 C21.4317933,15.9005852 21.6853437,16.5163505 22.1924449,17.0234517 C22.6995461,17.530553 23.3153114,17.7841033 24.0397416,17.7841033 Z M16.2158967,16.4801292 C15.7450172,16.4801292 15.3375253,16.3080772 14.9934209,15.9639727 C14.6493164,15.6198683 14.4772644,15.2123764 14.4772644,14.741497 C14.4772644,14.2706175 14.6493164,13.8631256 14.9934209,13.5190212 C15.3375253,13.1749168 15.7450172,13.0028647 16.2158967,13.0028647 C16.6867761,13.0028647 17.094268,13.1749168 17.4383724,13.5190212 C17.7824769,13.8631256 17.9545289,14.2706175 17.9545289,14.741497 C17.9545289,15.2123764 17.7824769,15.6198683 17.4383724,15.9639727 C17.094268,16.3080772 16.6867761,16.4801292 16.2158967,16.4801292 Z M24.0397416,16.4801292 C23.6775267,16.4801292 23.3696437,16.3533538 23.1160933,16.0998034 C22.8625429,15.846253 22.7357675,15.5383699 22.7357675,15.176155 C22.7357675,14.8139401 22.8625429,14.506057 23.1160933,14.2525067 C23.3696437,13.9989563 23.6775267,13.8721809 24.0397416,13.8721809 C24.4019565,13.8721809 24.7098396,13.9989563 24.96339,14.2525067 C25.2169404,14.506057 25.3437158,14.8139401 25.3437158,15.176155 C25.3437158,15.5383699 25.2169404,15.846253 24.96339,16.0998034 C24.7098396,16.3533538 24.4019565,16.4801292 24.0397416,16.4801292 Z M20.1278191,23.8693161 C20.4900341,23.8693161 20.7979171,23.7425407 21.0514675,23.4889903 C21.3050179,23.2354399 21.4317933,22.9275569 21.4317933,22.5653419 L21.4317933,22.5653419 L21.4317933,21.3428662 C21.4317933,20.70899 21.2506856,20.1294456 20.8884707,19.6042339 C20.6168095,19.1876868 20.259122,18.8707485 19.8154087,18.6534195 C19.3716954,18.4360904 18.8962881,18.3274259 18.3891869,18.3274259 C18.0631934,18.3274259 17.7462551,18.3727029 17.4383724,18.4632566 C17.0218253,18.590032 16.6098055,18.6534195 16.2023136,18.6534195 C15.7948217,18.6534195 15.3918576,18.590032 14.9934209,18.4632566 C14.6855382,18.3727029 14.3685999,18.3274259 14.0426064,18.3274259 C13.5355052,18.3274259 13.0600979,18.4360904 12.6163846,18.6534195 C12.1726713,18.8707485 11.8059286,19.1876868 11.5161564,19.6042339 C11.172052,20.1294456 11,20.70899 11,21.3428662 L11,21.3428662 L11,22.5653419 C11,22.9275569 11.1267754,23.2354399 11.3803258,23.4889903 C11.6338762,23.7425407 11.9417593,23.8693161 12.3039742,23.8693161 L12.3039742,23.8693161 L20.1278191,23.8693161 Z M27.299677,23 C27.6075597,23 27.8656379,22.8958633 28.0739117,22.6875895 C28.2821855,22.4793157 28.3863222,22.2212375 28.3863222,21.9133549 L28.3863222,21.9133549 L28.3863222,20.9082081 C28.3863222,20.3648855 28.2414363,19.8758952 27.9516641,19.4412372 C27.7162242,19.0971327 27.4128694,18.8345271 27.0415988,18.6534195 C26.6703283,18.4723118 26.2764194,18.3817582 25.8598722,18.3817582 C25.6063218,18.3817582 25.3165497,18.4270352 24.9905561,18.5175888 C24.6645626,18.6081424 24.3476243,18.6534195 24.0397416,18.6534195 C23.731859,18.6534195 23.4149207,18.6081424 23.0889271,18.5175888 C22.7629336,18.4270352 22.4731614,18.3817582 22.219611,18.3817582 C21.8755066,18.3817582 21.5314026,18.4542013 21.1872982,18.5990872 C21.3684058,18.7801949 21.5132917,18.9567747 21.6219562,19.1288267 C21.7306207,19.3008787 21.8392852,19.4955694 21.9479498,19.7128985 C22.0385034,19.6947876 22.1381126,19.6857323 22.2467772,19.6857323 C22.3554417,19.6857323 22.5365493,19.7128985 22.7900997,19.7672307 C23.2247578,19.8940061 23.6413049,19.9573936 24.0397416,19.9573936 C24.4381783,19.9573936 24.8547255,19.8940061 25.2893835,19.7672307 C25.5429339,19.7128985 25.7330968,19.6857323 25.8598722,19.6857323 C26.0772013,19.6857323 26.271892,19.7264815 26.443944,19.8079799 C26.615996,19.8894783 26.7563545,20.0117259 26.865019,20.1747226 C27.0099049,20.3920517 27.082348,20.6274916 27.082348,20.881042 L27.082348,20.881042 L27.082348,21.6960258 L22.3011094,21.6960258 L22.3011094,22.5653419 C22.3011094,22.7102278 22.2829985,22.8551141 22.2467772,23 L22.2467772,23 L27.299677,23 Z M20.1278191,22.5653419 L12.3039742,22.5653419 L12.3039742,21.3428662 C12.3039742,20.9625404 12.4171665,20.6139085 12.6435508,20.2969702 C12.869935,19.9800319 13.1551794,19.7581755 13.4992838,19.6314001 C13.789056,19.5227356 14.0788277,19.5227356 14.3685999,19.6314001 C14.9662547,19.8487291 15.5820205,19.9573936 16.2158967,19.9573936 C16.8497728,19.9573936 17.4655386,19.8487291 18.0631934,19.6314001 C18.3529656,19.5227356 18.6427373,19.5227356 18.9325095,19.6314001 C19.2947244,19.7581755 19.5844966,19.9800319 19.8018256,20.2969702 C20.0191546,20.6139085 20.1278191,20.9625404 20.1278191,21.3428662 L20.1278191,21.3428662 L20.1278191,22.5653419 Z" id="icn-in-person"></path>
                            </g>
                        </g>
                    </g>
                </g>
            </g>
        </g>
    </g>
</svg>